<svg width="24" height="24" xmlns="http://www.w3.org/2000/svg">
 <title/>

 <g>
  <title>background</title>
  <rect fill="none" id="canvas_background" height="402" width="582" y="-1" x="-1"/>
 </g>
 <g>
  <title>Layer 1</title>
  <circle id="svg_1" r="5" fill="#ffffff" cy="12" cx="12"/>
  <path id="svg_2" fill="#ffffff" d="m21,13l-1,0a1,1 0 0 1 0,-2l1,0a1,1 0 0 1 0,2z"/>
  <path id="svg_3" fill="#ffffff" d="m4,13l-1,0a1,1 0 0 1 0,-2l1,0a1,1 0 0 1 0,2z"/>
  <path id="svg_4" fill="#ffffff" d="m17.66,7.34a1,1 0 0 1 -0.66,-0.29a1,1 0 0 1 0,-1.41l0.71,-0.71a1,1 0 1 1 1.41,1.41l-0.71,0.71a1,1 0 0 1 -0.75,0.29z"/>
  <path id="svg_5" fill="#ffffff" d="m5.64,19.36a1,1 0 0 1 -0.71,-0.29a1,1 0 0 1 0,-1.41l0.71,-0.66a1,1 0 0 1 1.41,1.41l-0.71,0.71a1,1 0 0 1 -0.7,0.24z"/>
  <path id="svg_6" fill="#ffffff" d="m12,5a1,1 0 0 1 -1,-1l0,-1a1,1 0 0 1 2,0l0,1a1,1 0 0 1 -1,1z"/>
  <path id="svg_7" fill="#ffffff" d="m12,22a1,1 0 0 1 -1,-1l0,-1a1,1 0 0 1 2,0l0,1a1,1 0 0 1 -1,1z"/>
  <path id="svg_8" fill="#ffffff" d="m6.34,7.34a1,1 0 0 1 -0.7,-0.29l-0.71,-0.71a1,1 0 0 1 1.41,-1.41l0.71,0.71a1,1 0 0 1 0,1.41a1,1 0 0 1 -0.71,0.29z"/>
  <path id="svg_9" fill="#ffffff" d="m18.36,19.36a1,1 0 0 1 -0.7,-0.29l-0.66,-0.71a1,1 0 0 1 1.36,-1.36l0.71,0.71a1,1 0 0 1 0,1.41a1,1 0 0 1 -0.71,0.24z"/>
 </g>
</svg>